<?xml version="1.0" encoding="UTF-8" standalone="no"?>
<!DOCTYPE svg PUBLIC "-//W3C//DTD SVG 1.1//EN" "http://www.w3.org/Graphics/SVG/1.1/DTD/svg11.dtd">
<svg width="100%" height="100%" viewBox="0 0 40 40" version="1.1" xmlns="http://www.w3.org/2000/svg" xmlns:xlink="http://www.w3.org/1999/xlink" xml:space="preserve" xmlns:serif="http://www.serif.com/" style="fill-rule:evenodd;clip-rule:evenodd;stroke-linejoin:round;stroke-miterlimit:2;">
    <g transform="matrix(1,0,0,1,-16.1279,-25.1195)">
        <g transform="matrix(1,0,0,1,16.1279,25.1195)">
            <rect x="-0.58" y="-0.577" width="44.254" height="44.162" style="fill:white;"/>
        </g>
        <g id="logo" transform="matrix(0.358173,0,0,0.358173,23.4844,28.0357)">
            <g transform="matrix(1.08495,0,0,1.18505,-4.91714,-10.6359)">
                <path d="M69.128,55.963C69.128,53.599 67.031,51.68 64.449,51.68L33.311,51.68C30.729,51.68 28.632,53.599 28.632,55.963C28.632,58.327 30.729,60.246 33.311,60.246L64.449,60.246C67.031,60.246 69.128,58.327 69.128,55.963Z" style="fill:rgb(178,178,178);"/>
            </g>
            <g transform="matrix(1,0,0,1,-0.314334,-0.217885)">
                <g transform="matrix(6.93889e-17,-1.02701,1.02701,6.93889e-17,-35.926,109.216)">
                    <path d="M24.615,54.195C21.09,57.719 19.11,62.5 19.11,67.484C19.11,72.469 21.09,77.249 24.615,80.774L31.609,73.78C29.94,72.11 29.002,69.845 29.002,67.484C29.002,65.123 29.94,62.858 31.609,61.189L24.615,54.195Z" style="fill:rgb(254,160,22);"/>
                </g>
                <g transform="matrix(-0.42062,0.384164,-0.799178,-0.875019,113.675,106.004)">
                    <path d="M69.128,55.963C69.128,53.599 65.135,51.68 60.217,51.68L37.542,51.68C32.625,51.68 28.632,53.599 28.632,55.963C28.632,58.327 32.625,60.246 37.542,60.246L60.217,60.246C65.135,60.246 69.128,58.327 69.128,55.963Z" style="fill:rgb(254,160,22);"/>
                </g>
            </g>
            <g transform="matrix(1,0,0,-1,-0.375351,111.614)">
                <g transform="matrix(6.93889e-17,-1.02701,1.02701,6.93889e-17,-35.926,109.216)">
                    <path d="M24.615,54.195C21.09,57.719 19.11,62.5 19.11,67.484C19.11,72.469 21.09,77.249 24.615,80.774L31.609,73.78C29.94,72.11 29.002,69.845 29.002,67.484C29.002,65.123 29.94,62.858 31.609,61.189L24.615,54.195Z" style="fill:rgb(254,160,22);"/>
                </g>
                <g transform="matrix(-0.42062,0.384164,-0.799178,-0.875019,113.675,106.004)">
                    <path d="M69.128,55.963C69.128,53.599 65.135,51.68 60.217,51.68L37.542,51.68C32.625,51.68 28.632,53.599 28.632,55.963C28.632,58.327 32.625,60.246 37.542,60.246L60.217,60.246C65.135,60.246 69.128,58.327 69.128,55.963Z" style="fill:rgb(254,160,22);"/>
                </g>
            </g>
            <g>
                <g transform="matrix(0.997795,-1.04296,0.856294,0.819209,-71.0221,33.4772)">
                    <path d="M69.128,55.963C69.128,53.599 67.552,51.68 65.611,51.68L32.149,51.68C30.208,51.68 28.632,53.599 28.632,55.963C28.632,58.327 30.208,60.246 32.149,60.246L65.611,60.246C67.552,60.246 69.128,58.327 69.128,55.963Z" style="fill:rgb(32,32,32);"/>
                </g>
                <g transform="matrix(0.532549,0.587782,-0.878202,0.795679,39.2294,-0.881145)">
                    <path d="M69.128,55.963C69.128,53.599 66.26,51.68 62.728,51.68L35.032,51.68C31.5,51.68 28.632,53.599 28.632,55.963C28.632,58.327 31.5,60.246 35.032,60.246L62.728,60.246C66.26,60.246 69.128,58.327 69.128,55.963Z" style="fill:rgb(32,32,32);"/>
                </g>
                <g transform="matrix(1.02701,0,0,1.02701,-19.2256,-14.1492)">
                    <path d="M24.615,54.195C21.09,57.719 19.11,62.5 19.11,67.484C19.11,72.469 21.09,77.249 24.615,80.774L31.601,73.788C29.929,72.116 28.99,69.849 28.99,67.484C28.99,65.12 29.929,62.852 31.601,61.18L24.615,54.195Z" style="fill:rgb(32,32,32);"/>
                </g>
            </g>
        </g>
    </g>
</svg>
