<?xml version="1.0" encoding="UTF-8" standalone="no"?>
<!DOCTYPE svg PUBLIC "-//W3C//DTD SVG 1.1//EN" "http://www.w3.org/Graphics/SVG/1.1/DTD/svg11.dtd">
<svg width="100%" height="100%" viewBox="0 0 512 512" version="1.1" xmlns="http://www.w3.org/2000/svg" xmlns:xlink="http://www.w3.org/1999/xlink" xml:space="preserve" xmlns:serif="http://www.serif.com/" style="fill-rule:evenodd;clip-rule:evenodd;stroke-linejoin:round;stroke-miterlimit:2;">
    <rect x="-0.956" y="-1.176" width="513.885" height="513.974" style="fill:rgb(235,235,235);"/>
    <g transform="matrix(0.709374,0,0,0.709374,74.4003,74.4003)">
        <path d="M512,255.994C512,337.047 474.327,409.306 415.547,456.206C402.678,466.488 388.8,475.537 374.088,483.198C338.757,501.596 298.597,512 256.006,512C213.415,512 173.243,501.596 137.913,483.198C113.197,470.329 90.847,453.53 71.683,433.645C27.292,387.611 0,324.989 0,255.994C0,114.607 114.618,0 256.006,0C397.382,0 512,114.607 512,255.994Z" style="fill:rgb(39,83,107);fill-rule:nonzero;"/>
        <path d="M415.547,456.207C402.678,466.489 388.8,475.538 374.088,483.199C338.757,501.596 298.597,512 256.006,512C213.415,512 173.243,501.596 137.913,483.198C113.197,470.329 90.847,453.53 71.683,433.645C89.626,417.534 115.918,415.824 135.637,428.504C140.722,417.312 151.981,409.518 165.083,409.518C172.9,409.518 180.072,412.305 185.668,416.924C189.521,395.051 208.596,378.429 231.58,378.429C233.456,378.429 235.311,378.551 237.132,378.773L237.132,317.361L274.883,317.361L274.883,392.918C275.971,392.807 277.093,392.74 278.214,392.74C292.881,392.74 305.25,402.511 309.203,415.901C320.395,417.355 331.209,422.363 339.814,430.957C340.502,431.645 341.157,432.356 341.801,433.067C349.529,424.151 360.921,418.511 373.645,418.511C395.417,418.511 413.326,435.022 415.547,456.207Z" style="fill:white;fill-rule:nonzero;"/>
        <path d="M374.088,483.198C338.757,501.596 298.597,512 256.006,512C213.415,512 173.243,501.596 137.913,483.198C173.243,464.789 213.414,454.385 256.006,454.385C298.598,454.385 338.757,464.789 374.088,483.198Z" style="fill:rgb(249,181,90);fill-rule:nonzero;"/>
        <g>
            <path d="M286.208,305.148L225.71,305.148C215.435,305.148 207.106,296.818 207.106,286.544L207.106,267.398L304.814,267.398L304.814,286.544C304.813,296.819 296.483,305.148 286.208,305.148Z" style="fill:rgb(247,119,89);fill-rule:nonzero;"/>
            <path d="M327.666,177.747C327.666,177.747 367.391,216.054 380.156,258.562C383.849,270.859 374.419,283.198 361.579,283.198L314.244,283.198" style="fill:rgb(247,119,89);fill-rule:nonzero;"/>
            <path d="M184.251,177.747C184.251,177.747 144.825,215.765 131.906,258.083C128.097,270.563 137.295,283.198 150.343,283.198L197.671,283.198" style="fill:rgb(247,119,89);fill-rule:nonzero;"/>
        </g>
        <path d="M278.607,101.675C265.969,89.447 245.947,89.447 233.311,101.675C208.106,126.063 170.876,175.761 170.876,256.551C170.876,256.652 170.876,256.752 170.877,256.853C170.946,271.477 183.049,283.199 197.673,283.199L314.245,283.199C328.869,283.199 340.974,271.477 341.041,256.853C341.041,256.752 341.042,256.652 341.042,256.551C341.042,175.76 303.812,126.063 278.607,101.675Z" style="fill:rgb(230,230,230);fill-rule:nonzero;"/>
        <path d="M255.96,92.5C252.34,92.5 248.721,95.564 245.923,101.671C234.753,126.065 218.254,175.762 218.254,256.549L218.254,256.849C218.287,271.472 223.65,283.197 230.134,283.197L197.668,283.197C183.045,283.197 170.943,271.472 170.876,256.849L170.876,256.549C170.876,175.762 208.105,126.065 233.309,101.671C239.627,95.565 247.788,92.5 255.96,92.5Z" style="fill:rgb(204,204,204);fill-rule:nonzero;"/>
        <circle cx="255.961" cy="207.696" r="41.082" style="fill:rgb(26,165,226);"/>
        <path d="M255.959,255.996C229.327,255.996 207.66,234.329 207.66,207.697C207.66,181.065 229.327,159.398 255.959,159.398C282.591,159.398 304.258,181.065 304.258,207.697C304.258,234.329 282.591,255.996 255.959,255.996ZM255.959,173.832C237.287,173.832 222.094,189.023 222.094,207.697C222.094,226.371 237.286,241.562 255.959,241.562C274.632,241.562 289.824,226.371 289.824,207.697C289.824,189.023 274.631,173.832 255.959,173.832Z" style="fill:rgb(179,179,179);fill-rule:nonzero;"/>
        <g>
            <path d="M82.35,306.922L130.55,301.594L82.35,296.266L77.022,248.066L71.693,296.266L23.493,301.594L71.693,306.922L77.022,355.122L82.35,306.922Z" style="fill:white;fill-rule:nonzero;"/>
            <path d="M418.112,149.258L466.312,143.929L418.112,138.601L412.783,90.401L407.455,138.601L359.255,143.929L407.455,149.258L412.783,197.457L418.112,149.258Z" style="fill:white;fill-rule:nonzero;"/>
            <g transform="matrix(-0.7071,-0.7071,0.7071,-0.7071,-37.8087,670.124)">
                <rect x="114.702" y="337.711" width="10.362" height="10.362" style="fill:white;"/>
            </g>
            <g transform="matrix(-0.7071,-0.7071,0.7071,-0.7071,166.788,254.464)">
                <rect x="130.914" y="87.508" width="10.362" height="10.362" style="fill:white;"/>
            </g>
            <g transform="matrix(-0.7071,-0.7071,0.7071,-0.7071,510.664,314.173)">
                <rect x="315.218" y="46.143" width="10.362" height="10.362" style="fill:white;"/>
            </g>
            <g transform="matrix(-0.7071,-0.7071,0.7071,-0.7071,403.91,915.034)">
                <rect x="386.283" y="368.683" width="10.362" height="10.362" style="fill:white;"/>
            </g>
            <g transform="matrix(-0.7071,-0.7071,0.7071,-0.7071,560.959,814.649)">
                <rect x="444.018" y="285.965" width="10.362" height="10.362" style="fill:white;"/>
            </g>
        </g>
    </g>
</svg>
