<?xml version="1.0" encoding="UTF-8" standalone="no"?>
<!DOCTYPE svg PUBLIC "-//W3C//DTD SVG 1.1//EN" "http://www.w3.org/Graphics/SVG/1.1/DTD/svg11.dtd">
<svg width="100%" height="100%" viewBox="0 0 25 25" version="1.1" xmlns="http://www.w3.org/2000/svg" xmlns:xlink="http://www.w3.org/1999/xlink" xml:space="preserve" xmlns:serif="http://www.serif.com/" style="fill-rule:evenodd;clip-rule:evenodd;stroke-linejoin:round;stroke-miterlimit:2;">
    <g id="tip" transform="matrix(0.0873961,0,0,0.0873961,-3.90929,8.366)">
        <g transform="matrix(-12.1922,0,0,-12.1922,425.359,1593.5)">
            <circle cx="19.488" cy="126.819" r="11.731" style="fill:rgb(72,184,132);"/>
        </g>
        <g transform="matrix(0.730244,0,0,0.730244,0.813958,-92.905)">
            <path d="M277.333,320L234.667,320C224.405,320 213.333,312.128 213.333,294.827L213.333,266.667C213.333,254.165 207.936,242.731 198.912,236.075C173.973,217.728 159.424,188.352 160.021,157.525C160.981,106.731 203.413,64.747 254.592,64C280.149,64.128 305.152,73.451 323.627,91.691C341.909,109.739 352,133.781 352,159.424C352,189.333 337.6,217.899 313.472,235.819C304.192,242.709 298.667,254.293 298.667,266.816L298.667,298.667C298.667,310.443 289.088,320 277.333,320ZM255.979,85.333L254.891,85.333C215.787,85.909 182.101,119.168 181.355,157.952C180.885,181.845 192.171,204.629 211.563,218.901C226.027,229.568 234.667,247.424 234.667,266.667L234.667,294.827C234.667,298.005 235.435,299.051 235.435,299.051L277.333,298.667L277.333,266.816C277.333,247.595 286.08,229.611 300.736,218.688C319.765,204.565 330.667,182.955 330.667,159.424C330.667,139.541 322.837,120.875 308.629,106.88C294.528,92.949 275.861,85.333 255.979,85.333Z" style="fill:white;fill-rule:nonzero;"/>
            <path d="M288,277.333L224,277.333C218.112,277.333 213.333,272.555 213.333,266.667C213.333,260.779 218.112,256 224,256L288,256C293.888,256 298.667,260.779 298.667,266.667C298.667,272.555 293.888,277.333 288,277.333Z" style="fill:white;fill-rule:nonzero;"/>
        </g>
    </g>
</svg>
