<?xml version="1.0" encoding="UTF-8" standalone="no"?>
<!DOCTYPE svg PUBLIC "-//W3C//DTD SVG 1.1//EN" "http://www.w3.org/Graphics/SVG/1.1/DTD/svg11.dtd">
<svg width="100%" height="100%" viewBox="0 0 25 25" version="1.1" xmlns="http://www.w3.org/2000/svg" xmlns:xlink="http://www.w3.org/1999/xlink" xml:space="preserve" xmlns:serif="http://www.serif.com/" style="fill-rule:evenodd;clip-rule:evenodd;stroke-linejoin:round;stroke-miterlimit:2;">
    <g transform="matrix(1.08696,0,0,1.08696,-1.08696,-1.08696)">
        <g id="danger">
            <g transform="matrix(1,0,0,1,-3.67999e-05,-3.67999e-05)">
                <path d="M12.5,1C6.16,1 1,6.159 1,12.5C1,18.841 6.16,24 12.5,24C18.84,24 24,18.841 24,12.5C24,6.159 18.84,1 12.5,1Z" style="fill:rgb(255,85,85);fill-rule:nonzero;"/>
            </g>
            <g transform="matrix(1.10223,0,0,1.30449,-1.33646,-3.77758)">
                <path d="M17.581,12.478C17.581,11.896 17.021,11.423 16.332,11.423L8.774,11.423C8.085,11.423 7.525,11.896 7.525,12.478C7.525,13.06 8.085,13.533 8.774,13.533L16.332,13.533C17.021,13.533 17.581,13.06 17.581,12.478Z" style="fill:white;"/>
            </g>
        </g>
    </g>
</svg>
