<?xml version="1.0" encoding="UTF-8" standalone="no"?>
<!DOCTYPE svg PUBLIC "-//W3C//DTD SVG 1.1//EN" "http://www.w3.org/Graphics/SVG/1.1/DTD/svg11.dtd">
<svg width="100%" height="100%" viewBox="0 0 25 25" version="1.1" xmlns="http://www.w3.org/2000/svg" xmlns:xlink="http://www.w3.org/1999/xlink" xml:space="preserve" xmlns:serif="http://www.serif.com/" style="fill-rule:evenodd;clip-rule:evenodd;stroke-linejoin:round;stroke-miterlimit:2;">
    <g transform="matrix(1,0,0,1,-0.5,-0.5)">
        <g id="info">
            <g transform="matrix(1.69878,0,0,1.69878,-13.9745,-4.85014)">
                <circle cx="15.879" cy="10.508" r="7.358" style="fill:white;"/>
            </g>
            <g transform="matrix(1.0582,0,0,1.0582,-0.757143,-0.757143)">
                <path d="M13,1.188C6.477,1.188 1.188,6.477 1.188,13C1.188,19.523 6.477,24.813 13,24.813C19.523,24.813 24.813,19.523 24.813,13C24.813,6.477 19.523,1.188 13,1.188ZM15.459,19.495C14.851,19.735 14.367,19.917 14.004,20.043C13.642,20.169 13.221,20.232 12.742,20.232C12.006,20.232 11.433,20.052 11.025,19.693C10.617,19.334 10.414,18.879 10.414,18.326C10.414,18.111 10.429,17.891 10.459,17.667C10.49,17.443 10.539,17.191 10.606,16.908L11.367,14.22C11.434,13.962 11.492,13.717 11.538,13.489C11.584,13.259 11.606,13.048 11.606,12.856C11.606,12.514 11.535,12.274 11.394,12.139C11.251,12.004 10.982,11.938 10.581,11.938C10.385,11.938 10.183,11.967 9.976,12.028C9.771,12.091 9.593,12.148 9.447,12.204L9.648,11.376C10.146,11.173 10.623,10.999 11.078,10.855C11.533,10.709 11.963,10.637 12.368,10.637C13.099,10.637 13.663,10.815 14.06,11.167C14.455,11.52 14.654,11.979 14.654,12.543C14.654,12.66 14.64,12.866 14.613,13.16C14.586,13.455 14.535,13.724 14.461,13.971L13.704,16.651C13.642,16.866 13.587,17.112 13.537,17.387C13.488,17.662 13.464,17.872 13.464,18.013C13.464,18.369 13.543,18.612 13.703,18.741C13.861,18.87 14.138,18.935 14.53,18.935C14.715,18.935 14.922,18.902 15.156,18.838C15.388,18.774 15.556,18.717 15.662,18.668L15.459,19.495ZM15.325,8.617C14.972,8.945 14.547,9.109 14.05,9.109C13.554,9.109 13.126,8.945 12.77,8.617C12.416,8.289 12.237,7.89 12.237,7.424C12.237,6.959 12.417,6.559 12.77,6.228C13.126,5.896 13.554,5.731 14.05,5.731C14.547,5.731 14.973,5.896 15.325,6.228C15.678,6.559 15.855,6.959 15.855,7.424C15.855,7.891 15.678,8.289 15.325,8.617Z" style="fill:rgb(21,127,251);fill-rule:nonzero;"/>
            </g>
        </g>
    </g>
</svg>
