<?xml version="1.0" encoding="UTF-8" standalone="no"?>
<!DOCTYPE svg PUBLIC "-//W3C//DTD SVG 1.1//EN" "http://www.w3.org/Graphics/SVG/1.1/DTD/svg11.dtd">
<svg width="100%" height="100%" viewBox="0 0 25 25" version="1.1" xmlns="http://www.w3.org/2000/svg" xmlns:xlink="http://www.w3.org/1999/xlink" xml:space="preserve" xmlns:serif="http://www.serif.com/" style="fill-rule:evenodd;clip-rule:evenodd;stroke-linejoin:round;stroke-miterlimit:2;">
    <g id="tip" transform="matrix(0.0419977,0,0,0.0419977,0,0)">
        <g transform="matrix(1,0,0,1,0,-123.3)">
            <path d="M297.6,258.73L296,258.73C236.53,259.6 185.31,310.18 184.17,369.16C183.544,405.645 200.695,440.245 230.11,461.84C247.97,475.02 259.99,495.4 263.88,518.26L331.5,518.26C335.5,495.44 347.63,474.96 365.66,461.52C394.249,440.423 411.156,406.933 411.156,371.402C411.156,341.372 399.078,312.569 377.66,291.52C356.382,270.419 327.566,258.617 297.6,258.73Z" style="fill:rgb(72,184,132);fill-rule:nonzero;"/>
        </g>
        <g transform="matrix(1,0,0,1,0,-123.3)">
            <path d="M265.19,550.7L265.19,577.3C265.19,582.14 266.36,583.73 266.36,583.73L330.08,583.14L330.08,550.7L265.19,550.7Z" style="fill:rgb(72,184,132);fill-rule:nonzero;"/>
        </g>
        <g transform="matrix(1,0,0,1,0,-123.3)">
            <path d="M297.64,123.3C133.26,123.3 0,256.56 0,420.94C0,585.32 133.26,718.57 297.64,718.57C462.02,718.57 595.27,585.32 595.27,420.94C595.27,256.56 462,123.3 297.64,123.3ZM385,487.57C370.89,498.05 362.49,515.66 362.49,534.71L362.49,583.14C362.474,600.932 347.842,615.568 330.05,615.59L265.19,615.59C249.59,615.59 232.75,603.59 232.75,577.3L232.75,534.48C232.75,515.48 224.54,498.08 210.82,487.96C172.938,460.11 150.861,415.52 151.68,368.51C153.14,291.27 217.68,227.42 295.49,226.29C334.36,226.48 372.38,240.66 400.49,268.4C428.155,295.503 443.723,332.671 443.63,371.4C443.471,417.161 421.719,460.26 385,487.57Z" style="fill:rgb(72,184,132);fill-rule:nonzero;"/>
        </g>
    </g>
</svg>
