<?xml version="1.0" encoding="UTF-8" standalone="no"?>
<!DOCTYPE svg PUBLIC "-//W3C//DTD SVG 1.1//EN" "http://www.w3.org/Graphics/SVG/1.1/DTD/svg11.dtd">
<svg width="100%" height="100%" viewBox="0 0 25 25" version="1.1" xmlns="http://www.w3.org/2000/svg" xmlns:xlink="http://www.w3.org/1999/xlink" xml:space="preserve" xmlns:serif="http://www.serif.com/" style="fill-rule:evenodd;clip-rule:evenodd;stroke-linejoin:round;stroke-miterlimit:2;">
    <g transform="matrix(1,0,0,1,0.01,0)">
        <g id="warning" transform="matrix(0.0419963,0,0,0.041997,-0.01,-5.17908)">
            <path d="M297.65,123.32C133.27,123.32 0,256.58 0,421C0,585.42 133.27,718.6 297.65,718.6C462.03,718.6 595.29,585.34 595.29,421C595.29,256.66 462,123.32 297.65,123.32ZM297.05,606.64C274.459,606.64 255.87,588.051 255.87,565.46C255.87,542.869 274.459,524.28 297.05,524.28C319.641,524.28 338.23,542.869 338.23,565.46C338.23,588.051 319.641,606.64 297.05,606.64ZM339.43,442.37L339.2,442.37C339.061,464.859 320.519,483.286 298.03,483.286C275.444,483.286 256.859,464.701 256.859,442.115C256.859,442.03 256.859,441.945 256.86,441.86C256.86,440.86 256.91,439.93 256.97,438.98L256.97,276.73L257,276.73L257,276.46C256.997,276.246 256.995,276.032 256.995,275.818C256.995,253.228 275.584,234.638 298.175,234.638C320.766,234.638 339.355,253.228 339.355,275.818C339.355,276.032 339.353,276.246 339.35,276.46L339.35,276.73L339.41,276.73L339.43,442.37Z" style="fill:rgb(243,204,46);fill-rule:nonzero;"/>
        </g>
    </g>
</svg>
